# xmcd
#
# Track frame offsets:
#	180
#	13520
#	31983
#	55417
#	80343
#	94625
#	107520
#	125633
#	136189
#	151563
#	165271
#	180891
#	192776
#	215371
#	229376
#	246336
#	268073
#
# Disc length: 3744 seconds
#
# Revision: 1
# Processed by: cddbd v1.5.1PL2 Copyright (c) Steve Scherf et al.
# Submitted via: EasyCDDAExtractor 9.0.0.1
#
DISCID=d00e9e11
DTITLE=Tom Morrel and The Time-Warp Tophands - How The West Was Swung, Vol.5 (Go
DTITLE=Uptown)
DYEAR=1900
DGENRE=Country
TTITLE0=Lupus
TTITLE1=I Got A Right To Cry
TTITLE2=Sweet Georgia Brown
TTITLE3=Stingeree, Blackout Blues
TTITLE4=No Time Like The Past
TTITLE5=If You're So Smart How Come You Ain't Rich?
TTITLE6=Sweet Moments
TTITLE7=Velociraptor
TTITLE8=I Don't Know Enough About You
TTITLE9=Stack-O-Lee
TTITLE10=Flippity Flop, Flop
TTITLE11=Across The Alley From The Alamo
TTITLE12=Mississippi Delta Trilogy
TTITLE13=Sweet Lorraine
TTITLE14=Trouble In Mind
TTITLE15=It Don't Mean A Thing (If It Ain't Got That Swing)
TTITLE16=Celery Stalks At Midnight
EXTD=
EXTT0=
EXTT1=
EXTT2=
EXTT3=
EXTT4=
EXTT5=
EXTT6=
EXTT7=
EXTT8=
EXTT9=
EXTT10=
EXTT11=
EXTT12=
EXTT13=
EXTT14=
EXTT15=
EXTT16=
PLAYORDER=
